<mxfile host="app.diagrams.net" modified="2023-12-04T10:01:16.829Z" agent="Mozilla/5.0 (Windows NT 10.0; Win64; x64) AppleWebKit/537.36 (KHTML, like Gecko) Chrome/119.0.0.0 Safari/537.36" etag="wZdtLSSaVl7tyW_-AFGn" version="22.1.5" type="github">
  <diagram id="C5RBs43oDa-KdzZeNtuy" name="Page-1">
    <mxGraphModel dx="1098" dy="569" grid="1" gridSize="10" guides="1" tooltips="1" connect="1" arrows="1" fold="1" page="1" pageScale="1" pageWidth="3300" pageHeight="4681" math="0" shadow="0">
      <root>
        <mxCell id="WIyWlLk6GJQsqaUBKTNV-0" />
        <mxCell id="WIyWlLk6GJQsqaUBKTNV-1" parent="WIyWlLk6GJQsqaUBKTNV-0" />
        <mxCell id="sTVolGUjrKoJvCUlZHto-40" value="&lt;p style=&quot;margin-top: 0pt; margin-bottom: 0pt; margin-left: 0in; direction: ltr; unicode-bidi: embed; font-size: 14px;&quot;&gt;class QxIntegrationPage&lt;/p&gt;" style="rounded=0;whiteSpace=wrap;html=1;align=left;verticalAlign=top;fillColor=#fff2cc;strokeColor=#d6b656;fontSize=14;" vertex="1" parent="WIyWlLk6GJQsqaUBKTNV-1">
          <mxGeometry x="150" y="1045" width="1240" height="395" as="geometry" />
        </mxCell>
        <mxCell id="sTVolGUjrKoJvCUlZHto-1" value="&lt;p style=&quot;margin-top: 0pt; margin-bottom: 0pt; margin-left: 0in; direction: ltr; unicode-bidi: embed; font-size: 14px;&quot;&gt;class&amp;nbsp;QxNavigationPage&lt;/p&gt;" style="rounded=0;whiteSpace=wrap;html=1;verticalAlign=top;align=left;fillColor=#dae8fc;strokeColor=#6c8ebf;fontSize=14;" vertex="1" parent="WIyWlLk6GJQsqaUBKTNV-1">
          <mxGeometry x="630" y="240" width="520" height="80" as="geometry" />
        </mxCell>
        <mxCell id="sTVolGUjrKoJvCUlZHto-0" value="&lt;p style=&quot;margin-top: 0pt; margin-bottom: 0pt; margin-left: 0in; direction: ltr; unicode-bidi: embed; font-size: 14px;&quot;&gt;class MainPageWindow&lt;/p&gt;" style="rounded=0;whiteSpace=wrap;html=1;align=left;verticalAlign=top;labelBackgroundColor=none;fillColor=#d5e8d4;strokeColor=#82b366;fontSize=14;" vertex="1" parent="WIyWlLk6GJQsqaUBKTNV-1">
          <mxGeometry x="630" y="320" width="1590" height="220" as="geometry" />
        </mxCell>
        <mxCell id="sTVolGUjrKoJvCUlZHto-8" style="edgeStyle=orthogonalEdgeStyle;rounded=0;orthogonalLoop=1;jettySize=auto;html=1;exitX=0.5;exitY=1;exitDx=0;exitDy=0;fontFamily=Helvetica;fontSize=14;fontColor=default;" edge="1" parent="WIyWlLk6GJQsqaUBKTNV-1" source="WIyWlLk6GJQsqaUBKTNV-3" target="sTVolGUjrKoJvCUlZHto-6">
          <mxGeometry relative="1" as="geometry" />
        </mxCell>
        <mxCell id="WIyWlLk6GJQsqaUBKTNV-3" value="itemDoubleClickedSignal" style="rounded=1;whiteSpace=wrap;html=1;fontSize=14;glass=0;strokeWidth=1;shadow=0;fillColor=#60a917;strokeColor=#2D7600;fontColor=#ffffff;" parent="WIyWlLk6GJQsqaUBKTNV-1" vertex="1">
          <mxGeometry x="645" y="270" width="160" height="40" as="geometry" />
        </mxCell>
        <mxCell id="sTVolGUjrKoJvCUlZHto-2" value="&lt;p style=&quot;margin-top: 0pt; margin-bottom: 0pt; margin-left: 0in; direction: ltr; unicode-bidi: embed; font-size: 14px;&quot;&gt;class QxPiLayoutManager&lt;/p&gt;" style="rounded=0;whiteSpace=wrap;html=1;align=left;verticalAlign=top;fillColor=#ffe6cc;strokeColor=#d79b00;fontSize=14;" vertex="1" parent="WIyWlLk6GJQsqaUBKTNV-1">
          <mxGeometry x="1252.5" y="570" width="397.5" height="400" as="geometry" />
        </mxCell>
        <mxCell id="sTVolGUjrKoJvCUlZHto-9" style="edgeStyle=orthogonalEdgeStyle;rounded=0;orthogonalLoop=1;jettySize=auto;html=1;exitX=0.5;exitY=1;exitDx=0;exitDy=0;fontFamily=Helvetica;fontSize=14;fontColor=default;" edge="1" parent="WIyWlLk6GJQsqaUBKTNV-1" source="sTVolGUjrKoJvCUlZHto-4" target="sTVolGUjrKoJvCUlZHto-5">
          <mxGeometry relative="1" as="geometry" />
        </mxCell>
        <mxCell id="sTVolGUjrKoJvCUlZHto-4" value="openBtnClickedSignal" style="rounded=1;whiteSpace=wrap;html=1;fontSize=14;glass=0;strokeWidth=1;shadow=0;fillColor=#60a917;strokeColor=#2D7600;fontColor=#ffffff;" vertex="1" parent="WIyWlLk6GJQsqaUBKTNV-1">
          <mxGeometry x="975" y="270" width="160" height="40" as="geometry" />
        </mxCell>
        <mxCell id="sTVolGUjrKoJvCUlZHto-33" style="edgeStyle=orthogonalEdgeStyle;rounded=0;orthogonalLoop=1;jettySize=auto;html=1;exitX=0.5;exitY=1;exitDx=0;exitDy=0;fontFamily=Helvetica;fontSize=14;fontColor=default;" edge="1" parent="WIyWlLk6GJQsqaUBKTNV-1" source="sTVolGUjrKoJvCUlZHto-5" target="sTVolGUjrKoJvCUlZHto-32">
          <mxGeometry relative="1" as="geometry" />
        </mxCell>
        <mxCell id="sTVolGUjrKoJvCUlZHto-5" value="openBtnClicked" style="rounded=1;whiteSpace=wrap;html=1;fontSize=14;glass=0;strokeWidth=1;shadow=0;fillColor=#60a917;strokeColor=#2D7600;fontColor=#ffffff;" vertex="1" parent="WIyWlLk6GJQsqaUBKTNV-1">
          <mxGeometry x="975" y="340" width="160" height="40" as="geometry" />
        </mxCell>
        <mxCell id="sTVolGUjrKoJvCUlZHto-62" style="edgeStyle=orthogonalEdgeStyle;rounded=0;orthogonalLoop=1;jettySize=auto;html=1;fontFamily=Helvetica;fontSize=14;fontColor=default;" edge="1" parent="WIyWlLk6GJQsqaUBKTNV-1" source="sTVolGUjrKoJvCUlZHto-6" target="sTVolGUjrKoJvCUlZHto-61">
          <mxGeometry relative="1" as="geometry" />
        </mxCell>
        <mxCell id="sTVolGUjrKoJvCUlZHto-6" value="navigationClicked" style="rounded=1;whiteSpace=wrap;html=1;fontSize=14;glass=0;strokeWidth=1;shadow=0;fillColor=#60a917;strokeColor=#2D7600;fontColor=#ffffff;" vertex="1" parent="WIyWlLk6GJQsqaUBKTNV-1">
          <mxGeometry x="645" y="340" width="160" height="40" as="geometry" />
        </mxCell>
        <mxCell id="sTVolGUjrKoJvCUlZHto-12" style="edgeStyle=orthogonalEdgeStyle;rounded=0;orthogonalLoop=1;jettySize=auto;html=1;exitX=0.5;exitY=1;exitDx=0;exitDy=0;entryX=0.5;entryY=0;entryDx=0;entryDy=0;fontFamily=Helvetica;fontSize=14;fontColor=default;" edge="1" parent="WIyWlLk6GJQsqaUBKTNV-1" source="sTVolGUjrKoJvCUlZHto-7" target="sTVolGUjrKoJvCUlZHto-11">
          <mxGeometry relative="1" as="geometry" />
        </mxCell>
        <mxCell id="sTVolGUjrKoJvCUlZHto-7" value="loadLayoutGdsSlot" style="rounded=1;whiteSpace=wrap;html=1;fontSize=14;glass=0;strokeWidth=1;shadow=0;fillColor=#60a917;strokeColor=#2D7600;fontColor=#ffffff;" vertex="1" parent="WIyWlLk6GJQsqaUBKTNV-1">
          <mxGeometry x="1315" y="600" width="160" height="40" as="geometry" />
        </mxCell>
        <mxCell id="sTVolGUjrKoJvCUlZHto-16" style="edgeStyle=orthogonalEdgeStyle;rounded=0;orthogonalLoop=1;jettySize=auto;html=1;exitX=0.5;exitY=1;exitDx=0;exitDy=0;fontFamily=Helvetica;fontSize=14;fontColor=default;" edge="1" parent="WIyWlLk6GJQsqaUBKTNV-1" source="sTVolGUjrKoJvCUlZHto-11" target="sTVolGUjrKoJvCUlZHto-13">
          <mxGeometry relative="1" as="geometry" />
        </mxCell>
        <mxCell id="sTVolGUjrKoJvCUlZHto-11" value="//清理界面的clip，point&amp;amp;gauge表格；" style="rounded=1;whiteSpace=wrap;html=1;fontSize=14;glass=0;strokeWidth=1;shadow=0;fillColor=#60a917;strokeColor=#2D7600;fontColor=#ffffff;" vertex="1" parent="WIyWlLk6GJQsqaUBKTNV-1">
          <mxGeometry x="1315" y="670" width="160" height="40" as="geometry" />
        </mxCell>
        <mxCell id="sTVolGUjrKoJvCUlZHto-17" style="edgeStyle=orthogonalEdgeStyle;rounded=0;orthogonalLoop=1;jettySize=auto;html=1;exitX=0.5;exitY=1;exitDx=0;exitDy=0;entryX=0.5;entryY=0;entryDx=0;entryDy=0;fontFamily=Helvetica;fontSize=14;fontColor=default;" edge="1" parent="WIyWlLk6GJQsqaUBKTNV-1" source="sTVolGUjrKoJvCUlZHto-13" target="sTVolGUjrKoJvCUlZHto-15">
          <mxGeometry relative="1" as="geometry" />
        </mxCell>
        <mxCell id="sTVolGUjrKoJvCUlZHto-13" value="new LayoutView(gds_path);" style="rounded=1;whiteSpace=wrap;html=1;fontSize=14;glass=0;strokeWidth=1;shadow=0;fillColor=#60a917;strokeColor=#2D7600;fontColor=#ffffff;" vertex="1" parent="WIyWlLk6GJQsqaUBKTNV-1">
          <mxGeometry x="1315" y="750" width="160" height="40" as="geometry" />
        </mxCell>
        <mxCell id="sTVolGUjrKoJvCUlZHto-22" style="edgeStyle=orthogonalEdgeStyle;rounded=0;orthogonalLoop=1;jettySize=auto;html=1;exitX=0.5;exitY=1;exitDx=0;exitDy=0;fontFamily=Helvetica;fontSize=14;fontColor=default;" edge="1" parent="WIyWlLk6GJQsqaUBKTNV-1" source="sTVolGUjrKoJvCUlZHto-15" target="sTVolGUjrKoJvCUlZHto-20">
          <mxGeometry relative="1" as="geometry" />
        </mxCell>
        <mxCell id="sTVolGUjrKoJvCUlZHto-15" value="new QxLoadLayoutThread(this);" style="rounded=1;whiteSpace=wrap;html=1;fontSize=14;glass=0;strokeWidth=1;shadow=0;fillColor=#60a917;strokeColor=#2D7600;fontColor=#ffffff;" vertex="1" parent="WIyWlLk6GJQsqaUBKTNV-1">
          <mxGeometry x="1300" y="820" width="190" height="40" as="geometry" />
        </mxCell>
        <mxCell id="sTVolGUjrKoJvCUlZHto-18" value="new thread for load" style="shape=callout;whiteSpace=wrap;html=1;perimeter=calloutPerimeter;rounded=0;strokeColor=default;align=center;verticalAlign=middle;fontFamily=Helvetica;fontSize=14;fontColor=default;fillColor=default;position2=0;" vertex="1" parent="WIyWlLk6GJQsqaUBKTNV-1">
          <mxGeometry x="1490" y="790" width="120" height="60" as="geometry" />
        </mxCell>
        <mxCell id="sTVolGUjrKoJvCUlZHto-19" value="重新加载LayoutView界面" style="shape=callout;whiteSpace=wrap;html=1;perimeter=calloutPerimeter;rounded=0;strokeColor=default;align=center;verticalAlign=middle;fontFamily=Helvetica;fontSize=14;fontColor=default;fillColor=default;position2=0;" vertex="1" parent="WIyWlLk6GJQsqaUBKTNV-1">
          <mxGeometry x="1475" y="710" width="165" height="60" as="geometry" />
        </mxCell>
        <mxCell id="sTVolGUjrKoJvCUlZHto-24" style="edgeStyle=orthogonalEdgeStyle;rounded=0;orthogonalLoop=1;jettySize=auto;html=1;exitX=0.5;exitY=1;exitDx=0;exitDy=0;fontFamily=Helvetica;fontSize=14;fontColor=default;" edge="1" parent="WIyWlLk6GJQsqaUBKTNV-1" source="sTVolGUjrKoJvCUlZHto-20" target="sTVolGUjrKoJvCUlZHto-23">
          <mxGeometry relative="1" as="geometry" />
        </mxCell>
        <mxCell id="sTVolGUjrKoJvCUlZHto-20" value="m_load_layout_thread-&amp;gt;startJob(true);" style="rounded=1;whiteSpace=wrap;html=1;fontSize=14;glass=0;strokeWidth=1;shadow=0;fillColor=#60a917;strokeColor=#2D7600;fontColor=#ffffff;" vertex="1" parent="WIyWlLk6GJQsqaUBKTNV-1">
          <mxGeometry x="1265" y="910" width="260" height="40" as="geometry" />
        </mxCell>
        <mxCell id="sTVolGUjrKoJvCUlZHto-21" value="实际执行加载layout线程" style="shape=callout;whiteSpace=wrap;html=1;perimeter=calloutPerimeter;rounded=0;strokeColor=default;align=center;verticalAlign=middle;fontFamily=Helvetica;fontSize=14;fontColor=default;fillColor=default;position2=0;" vertex="1" parent="WIyWlLk6GJQsqaUBKTNV-1">
          <mxGeometry x="1525" y="880" width="120" height="60" as="geometry" />
        </mxCell>
        <mxCell id="sTVolGUjrKoJvCUlZHto-27" style="edgeStyle=orthogonalEdgeStyle;rounded=0;orthogonalLoop=1;jettySize=auto;html=1;exitX=0.5;exitY=1;exitDx=0;exitDy=0;fontFamily=Helvetica;fontSize=14;fontColor=default;entryX=0;entryY=1;entryDx=0;entryDy=0;" edge="1" parent="WIyWlLk6GJQsqaUBKTNV-1" source="sTVolGUjrKoJvCUlZHto-23" target="sTVolGUjrKoJvCUlZHto-26">
          <mxGeometry relative="1" as="geometry">
            <mxPoint x="1385" y="395" as="targetPoint" />
          </mxGeometry>
        </mxCell>
        <mxCell id="sTVolGUjrKoJvCUlZHto-23" value="QxLoadLayoutThread::run" style="rounded=1;whiteSpace=wrap;html=1;fontSize=14;glass=0;strokeWidth=1;shadow=0;fillColor=#fa6800;strokeColor=#C73500;fontColor=#000000;" vertex="1" parent="WIyWlLk6GJQsqaUBKTNV-1">
          <mxGeometry x="1585" y="1040" width="260" height="40" as="geometry" />
        </mxCell>
        <mxCell id="sTVolGUjrKoJvCUlZHto-31" style="edgeStyle=orthogonalEdgeStyle;rounded=0;orthogonalLoop=1;jettySize=auto;html=1;exitX=1;exitY=1;exitDx=0;exitDy=0;fontFamily=Helvetica;fontSize=14;fontColor=default;" edge="1" parent="WIyWlLk6GJQsqaUBKTNV-1" source="sTVolGUjrKoJvCUlZHto-26" target="sTVolGUjrKoJvCUlZHto-30">
          <mxGeometry relative="1" as="geometry" />
        </mxCell>
        <mxCell id="sTVolGUjrKoJvCUlZHto-26" value="MainPageWindow::mainWindow-&amp;gt;loadLayout" style="rounded=1;whiteSpace=wrap;html=1;fontSize=14;glass=0;strokeWidth=1;shadow=0;fillColor=#fa6800;strokeColor=#C73500;fontColor=#000000;" vertex="1" parent="WIyWlLk6GJQsqaUBKTNV-1">
          <mxGeometry x="1685" y="335" width="470" height="40" as="geometry" />
        </mxCell>
        <mxCell id="sTVolGUjrKoJvCUlZHto-28" value="&lt;p style=&quot;margin-top: 0pt; margin-bottom: 0pt; margin-left: 0in; direction: ltr; unicode-bidi: embed; font-size: 14px;&quot;&gt;main thread&lt;/p&gt;" style="rounded=0;whiteSpace=wrap;html=1;fillColor=#60a917;fontColor=#ffffff;strokeColor=#2D7600;fontSize=14;" vertex="1" parent="WIyWlLk6GJQsqaUBKTNV-1">
          <mxGeometry x="2100" y="200" width="120" height="30" as="geometry" />
        </mxCell>
        <mxCell id="sTVolGUjrKoJvCUlZHto-29" value="&lt;p style=&quot;margin-top: 0pt; margin-bottom: 0pt; margin-left: 0in; direction: ltr; unicode-bidi: embed; font-size: 14px;&quot;&gt;load layout thread&lt;/p&gt;" style="rounded=0;whiteSpace=wrap;html=1;fillColor=#fa6800;fontColor=#000000;strokeColor=#C73500;fontSize=14;" vertex="1" parent="WIyWlLk6GJQsqaUBKTNV-1">
          <mxGeometry x="2100" y="260" width="120" height="30" as="geometry" />
        </mxCell>
        <mxCell id="sTVolGUjrKoJvCUlZHto-42" style="edgeStyle=orthogonalEdgeStyle;rounded=0;orthogonalLoop=1;jettySize=auto;html=1;exitX=0.5;exitY=1;exitDx=0;exitDy=0;fontFamily=Helvetica;fontSize=14;fontColor=default;" edge="1" parent="WIyWlLk6GJQsqaUBKTNV-1" source="sTVolGUjrKoJvCUlZHto-30" target="sTVolGUjrKoJvCUlZHto-41">
          <mxGeometry relative="1" as="geometry" />
        </mxCell>
        <mxCell id="sTVolGUjrKoJvCUlZHto-30" value="view-&amp;gt;load_layout" style="rounded=1;whiteSpace=wrap;html=1;fontSize=14;glass=0;strokeWidth=1;shadow=0;fillColor=#fa6800;strokeColor=#C73500;fontColor=#000000;" vertex="1" parent="WIyWlLk6GJQsqaUBKTNV-1">
          <mxGeometry x="1945" y="420" width="210" height="40" as="geometry" />
        </mxCell>
        <mxCell id="sTVolGUjrKoJvCUlZHto-34" style="edgeStyle=orthogonalEdgeStyle;rounded=0;orthogonalLoop=1;jettySize=auto;html=1;exitX=1;exitY=0.5;exitDx=0;exitDy=0;fontFamily=Helvetica;fontSize=14;fontColor=default;" edge="1" parent="WIyWlLk6GJQsqaUBKTNV-1" source="sTVolGUjrKoJvCUlZHto-32" target="sTVolGUjrKoJvCUlZHto-7">
          <mxGeometry relative="1" as="geometry" />
        </mxCell>
        <mxCell id="sTVolGUjrKoJvCUlZHto-39" value="layout" style="edgeLabel;html=1;align=center;verticalAlign=middle;resizable=0;points=[];fontSize=14;fontFamily=Helvetica;fontColor=default;" vertex="1" connectable="0" parent="sTVolGUjrKoJvCUlZHto-34">
          <mxGeometry x="-0.2531" y="-4" relative="1" as="geometry">
            <mxPoint as="offset" />
          </mxGeometry>
        </mxCell>
        <mxCell id="sTVolGUjrKoJvCUlZHto-37" style="edgeStyle=orthogonalEdgeStyle;rounded=0;orthogonalLoop=1;jettySize=auto;html=1;exitX=0.5;exitY=1;exitDx=0;exitDy=0;fontFamily=Helvetica;fontSize=14;fontColor=default;" edge="1" parent="WIyWlLk6GJQsqaUBKTNV-1" source="sTVolGUjrKoJvCUlZHto-32" target="sTVolGUjrKoJvCUlZHto-36">
          <mxGeometry relative="1" as="geometry" />
        </mxCell>
        <mxCell id="sTVolGUjrKoJvCUlZHto-38" value="flow/construction" style="edgeLabel;html=1;align=center;verticalAlign=middle;resizable=0;points=[];fontSize=14;fontFamily=Helvetica;fontColor=default;" vertex="1" connectable="0" parent="sTVolGUjrKoJvCUlZHto-37">
          <mxGeometry x="0.3182" y="3" relative="1" as="geometry">
            <mxPoint y="-1" as="offset" />
          </mxGeometry>
        </mxCell>
        <mxCell id="sTVolGUjrKoJvCUlZHto-32" value="switch type" style="rhombus;whiteSpace=wrap;html=1;rounded=0;strokeColor=#2D7600;align=center;verticalAlign=middle;fontFamily=Helvetica;fontSize=14;fillColor=#60a917;fontColor=#ffffff;" vertex="1" parent="WIyWlLk6GJQsqaUBKTNV-1">
          <mxGeometry x="1015" y="435" width="80" height="50" as="geometry" />
        </mxCell>
        <mxCell id="sTVolGUjrKoJvCUlZHto-44" style="edgeStyle=orthogonalEdgeStyle;rounded=0;orthogonalLoop=1;jettySize=auto;html=1;exitX=0.5;exitY=1;exitDx=0;exitDy=0;fontFamily=Helvetica;fontSize=14;fontColor=default;" edge="1" parent="WIyWlLk6GJQsqaUBKTNV-1" source="sTVolGUjrKoJvCUlZHto-36" target="sTVolGUjrKoJvCUlZHto-43">
          <mxGeometry relative="1" as="geometry" />
        </mxCell>
        <mxCell id="sTVolGUjrKoJvCUlZHto-36" value="openLibrary" style="rounded=1;whiteSpace=wrap;html=1;fontSize=14;glass=0;strokeWidth=1;shadow=0;fillColor=#60a917;strokeColor=#2D7600;fontColor=#ffffff;" vertex="1" parent="WIyWlLk6GJQsqaUBKTNV-1">
          <mxGeometry x="975" y="1075" width="160" height="40" as="geometry" />
        </mxCell>
        <mxCell id="sTVolGUjrKoJvCUlZHto-41" value="??" style="rounded=1;whiteSpace=wrap;html=1;fontSize=14;glass=0;strokeWidth=1;shadow=0;fillColor=#fa6800;strokeColor=#C73500;fontColor=#000000;" vertex="1" parent="WIyWlLk6GJQsqaUBKTNV-1">
          <mxGeometry x="1945" y="485" width="210" height="40" as="geometry" />
        </mxCell>
        <mxCell id="sTVolGUjrKoJvCUlZHto-47" style="edgeStyle=orthogonalEdgeStyle;rounded=0;orthogonalLoop=1;jettySize=auto;html=1;exitX=0.5;exitY=1;exitDx=0;exitDy=0;fontFamily=Helvetica;fontSize=14;fontColor=default;" edge="1" parent="WIyWlLk6GJQsqaUBKTNV-1" source="sTVolGUjrKoJvCUlZHto-43" target="sTVolGUjrKoJvCUlZHto-46">
          <mxGeometry relative="1" as="geometry" />
        </mxCell>
        <mxCell id="sTVolGUjrKoJvCUlZHto-52" value="LibraryType_Flow" style="edgeLabel;html=1;align=center;verticalAlign=middle;resizable=0;points=[];fontSize=14;fontFamily=Helvetica;fontColor=default;" vertex="1" connectable="0" parent="sTVolGUjrKoJvCUlZHto-47">
          <mxGeometry x="-0.1668" y="-3" relative="1" as="geometry">
            <mxPoint as="offset" />
          </mxGeometry>
        </mxCell>
        <mxCell id="sTVolGUjrKoJvCUlZHto-50" style="edgeStyle=orthogonalEdgeStyle;rounded=0;orthogonalLoop=1;jettySize=auto;html=1;exitX=1;exitY=0.5;exitDx=0;exitDy=0;fontFamily=Helvetica;fontSize=14;fontColor=default;" edge="1" parent="WIyWlLk6GJQsqaUBKTNV-1" source="sTVolGUjrKoJvCUlZHto-43" target="sTVolGUjrKoJvCUlZHto-49">
          <mxGeometry relative="1" as="geometry" />
        </mxCell>
        <mxCell id="sTVolGUjrKoJvCUlZHto-51" value="LibraryType_Construction" style="edgeLabel;html=1;align=center;verticalAlign=middle;resizable=0;points=[];fontSize=14;fontFamily=Helvetica;fontColor=default;" vertex="1" connectable="0" parent="sTVolGUjrKoJvCUlZHto-50">
          <mxGeometry x="-0.3792" y="1" relative="1" as="geometry">
            <mxPoint as="offset" />
          </mxGeometry>
        </mxCell>
        <mxCell id="sTVolGUjrKoJvCUlZHto-43" value="switch library_type" style="rhombus;whiteSpace=wrap;html=1;rounded=0;strokeColor=#2D7600;align=center;verticalAlign=middle;fontFamily=Helvetica;fontSize=14;fillColor=#60a917;fontColor=#ffffff;" vertex="1" parent="WIyWlLk6GJQsqaUBKTNV-1">
          <mxGeometry x="1005" y="1185" width="100" height="70" as="geometry" />
        </mxCell>
        <mxCell id="sTVolGUjrKoJvCUlZHto-46" value="m_flowLibrary-&amp;gt;importTclItemSlot();" style="rounded=1;whiteSpace=wrap;html=1;fontSize=14;glass=0;strokeWidth=1;shadow=0;fillColor=#60a917;strokeColor=#2D7600;fontColor=#ffffff;" vertex="1" parent="WIyWlLk6GJQsqaUBKTNV-1">
          <mxGeometry x="975" y="1375" width="160" height="40" as="geometry" />
        </mxCell>
        <mxCell id="sTVolGUjrKoJvCUlZHto-49" value="m_constructionLibrary-&amp;gt;importTBItemSlot();" style="rounded=1;whiteSpace=wrap;html=1;fontSize=14;glass=0;strokeWidth=1;shadow=0;fillColor=#60a917;strokeColor=#2D7600;fontColor=#ffffff;" vertex="1" parent="WIyWlLk6GJQsqaUBKTNV-1">
          <mxGeometry x="1215" y="1375" width="160" height="40" as="geometry" />
        </mxCell>
        <mxCell id="sTVolGUjrKoJvCUlZHto-53" value="&lt;span style=&quot;font-size: 22px;&quot;&gt;外部读取layout/flow/...&lt;/span&gt;" style="text;html=1;strokeColor=none;fillColor=none;align=center;verticalAlign=middle;whiteSpace=wrap;rounded=0;fontSize=22;fontFamily=Helvetica;fontColor=default;" vertex="1" parent="WIyWlLk6GJQsqaUBKTNV-1">
          <mxGeometry x="955" y="160" width="190" height="70" as="geometry" />
        </mxCell>
        <mxCell id="sTVolGUjrKoJvCUlZHto-64" style="edgeStyle=orthogonalEdgeStyle;rounded=0;orthogonalLoop=1;jettySize=auto;html=1;exitX=0.5;exitY=1;exitDx=0;exitDy=0;entryX=0.5;entryY=0;entryDx=0;entryDy=0;fontFamily=Helvetica;fontSize=14;fontColor=default;" edge="1" parent="WIyWlLk6GJQsqaUBKTNV-1" source="sTVolGUjrKoJvCUlZHto-61" target="sTVolGUjrKoJvCUlZHto-63">
          <mxGeometry relative="1" as="geometry" />
        </mxCell>
        <mxCell id="sTVolGUjrKoJvCUlZHto-61" value="navigator-&amp;gt;close();" style="rounded=1;whiteSpace=wrap;html=1;fontSize=14;glass=0;strokeWidth=1;shadow=0;fillColor=#60a917;strokeColor=#2D7600;fontColor=#ffffff;" vertex="1" parent="WIyWlLk6GJQsqaUBKTNV-1">
          <mxGeometry x="645" y="410" width="160" height="40" as="geometry" />
        </mxCell>
        <mxCell id="sTVolGUjrKoJvCUlZHto-69" style="edgeStyle=orthogonalEdgeStyle;rounded=0;orthogonalLoop=1;jettySize=auto;html=1;exitX=1;exitY=0.5;exitDx=0;exitDy=0;fontFamily=Helvetica;fontSize=14;fontColor=default;" edge="1" parent="WIyWlLk6GJQsqaUBKTNV-1" source="sTVolGUjrKoJvCUlZHto-63" target="sTVolGUjrKoJvCUlZHto-7">
          <mxGeometry relative="1" as="geometry" />
        </mxCell>
        <mxCell id="sTVolGUjrKoJvCUlZHto-70" value="layout" style="edgeLabel;html=1;align=center;verticalAlign=middle;resizable=0;points=[];fontSize=14;fontFamily=Helvetica;fontColor=default;" vertex="1" connectable="0" parent="sTVolGUjrKoJvCUlZHto-69">
          <mxGeometry x="-0.4166" y="1" relative="1" as="geometry">
            <mxPoint as="offset" />
          </mxGeometry>
        </mxCell>
        <mxCell id="sTVolGUjrKoJvCUlZHto-83" style="edgeStyle=orthogonalEdgeStyle;rounded=0;orthogonalLoop=1;jettySize=auto;html=1;exitX=0.5;exitY=1;exitDx=0;exitDy=0;entryX=0.5;entryY=0;entryDx=0;entryDy=0;fontFamily=Helvetica;fontSize=14;fontColor=default;" edge="1" parent="WIyWlLk6GJQsqaUBKTNV-1" source="sTVolGUjrKoJvCUlZHto-63" target="sTVolGUjrKoJvCUlZHto-82">
          <mxGeometry relative="1" as="geometry" />
        </mxCell>
        <mxCell id="sTVolGUjrKoJvCUlZHto-84" value="flow/construction" style="edgeLabel;html=1;align=center;verticalAlign=middle;resizable=0;points=[];fontSize=14;fontFamily=Helvetica;fontColor=default;" vertex="1" connectable="0" parent="sTVolGUjrKoJvCUlZHto-83">
          <mxGeometry x="0.1593" relative="1" as="geometry">
            <mxPoint as="offset" />
          </mxGeometry>
        </mxCell>
        <mxCell id="sTVolGUjrKoJvCUlZHto-63" value="switch type" style="rhombus;whiteSpace=wrap;html=1;rounded=0;strokeColor=#2D7600;align=center;verticalAlign=middle;fontFamily=Helvetica;fontSize=14;fillColor=#60a917;fontColor=#ffffff;" vertex="1" parent="WIyWlLk6GJQsqaUBKTNV-1">
          <mxGeometry x="685" y="490" width="80" height="50" as="geometry" />
        </mxCell>
        <mxCell id="sTVolGUjrKoJvCUlZHto-65" value="&lt;p style=&quot;margin-top: 0pt; margin-bottom: 0pt; margin-left: 0in; direction: ltr; unicode-bidi: embed; font-size: 14px;&quot;&gt;class MainPageWindow&lt;/p&gt;" style="rounded=0;whiteSpace=wrap;html=1;fontSize=14;" vertex="1" parent="WIyWlLk6GJQsqaUBKTNV-1">
          <mxGeometry x="1055" y="1570" width="160" height="30" as="geometry" />
        </mxCell>
        <mxCell id="sTVolGUjrKoJvCUlZHto-66" value="&lt;p style=&quot;margin-top: 0pt; margin-bottom: 0pt; margin-left: 0in; direction: ltr; unicode-bidi: embed; font-size: 14px;&quot;&gt;class&amp;nbsp;QxNavigationPage&lt;/p&gt;" style="rounded=0;whiteSpace=wrap;html=1;fontSize=14;" vertex="1" parent="WIyWlLk6GJQsqaUBKTNV-1">
          <mxGeometry x="1195" y="1640" width="150" height="30" as="geometry" />
        </mxCell>
        <mxCell id="sTVolGUjrKoJvCUlZHto-68" value="&lt;p style=&quot;margin-top: 0pt; margin-bottom: 0pt; margin-left: 0in; direction: ltr; unicode-bidi: embed; font-size: 14px;&quot;&gt;QxPiLayoutManager&lt;/p&gt;" style="rounded=0;whiteSpace=wrap;html=1;fontSize=14;" vertex="1" parent="WIyWlLk6GJQsqaUBKTNV-1">
          <mxGeometry x="1195" y="1710" width="150" height="30" as="geometry" />
        </mxCell>
        <mxCell id="sTVolGUjrKoJvCUlZHto-72" value="&lt;span style=&quot;font-size: 22px;&quot;&gt;加载layout/flow/...&lt;/span&gt;" style="text;html=1;strokeColor=none;fillColor=none;align=center;verticalAlign=middle;whiteSpace=wrap;rounded=0;fontSize=22;fontFamily=Helvetica;fontColor=default;" vertex="1" parent="WIyWlLk6GJQsqaUBKTNV-1">
          <mxGeometry x="635" y="160" width="190" height="70" as="geometry" />
        </mxCell>
        <mxCell id="sTVolGUjrKoJvCUlZHto-74" value="关闭导航页，进入主菜单" style="shape=callout;whiteSpace=wrap;html=1;perimeter=calloutPerimeter;rounded=0;strokeColor=default;align=center;verticalAlign=middle;fontFamily=Helvetica;fontSize=14;fontColor=default;fillColor=default;position2=0;" vertex="1" parent="WIyWlLk6GJQsqaUBKTNV-1">
          <mxGeometry x="810" y="370" width="90" height="70" as="geometry" />
        </mxCell>
        <mxCell id="sTVolGUjrKoJvCUlZHto-82" value="clickedLibrary" style="rounded=1;whiteSpace=wrap;html=1;fontSize=14;glass=0;strokeWidth=1;shadow=0;fillColor=#60a917;strokeColor=#2D7600;fontColor=#ffffff;" vertex="1" parent="WIyWlLk6GJQsqaUBKTNV-1">
          <mxGeometry x="645" y="1080" width="160" height="40" as="geometry" />
        </mxCell>
        <mxCell id="sTVolGUjrKoJvCUlZHto-88" style="edgeStyle=orthogonalEdgeStyle;rounded=0;orthogonalLoop=1;jettySize=auto;html=1;exitX=0.5;exitY=1;exitDx=0;exitDy=0;fontFamily=Helvetica;fontSize=12;fontColor=default;" edge="1" parent="WIyWlLk6GJQsqaUBKTNV-1" source="sTVolGUjrKoJvCUlZHto-85">
          <mxGeometry relative="1" as="geometry">
            <mxPoint x="305" y="1222.5" as="targetPoint" />
          </mxGeometry>
        </mxCell>
        <mxCell id="sTVolGUjrKoJvCUlZHto-85" value="&lt;div&gt;QxLibraryList&lt;br&gt;&lt;/div&gt;&lt;div&gt;m_flowLibrary;&lt;/div&gt;&lt;div&gt;&amp;nbsp; &amp;nbsp; m_constructionLibrary;&lt;/div&gt;&lt;div&gt;&amp;nbsp; &amp;nbsp; m_processStepLibrary;&lt;/div&gt;&lt;div&gt;&amp;nbsp; &amp;nbsp; m_userStepLibrary;&lt;/div&gt;&lt;div&gt;&amp;nbsp; &amp;nbsp; m_moduleLibrary;&amp;nbsp;&amp;nbsp;&lt;/div&gt;" style="rounded=1;whiteSpace=wrap;html=1;fontSize=14;glass=0;strokeWidth=1;shadow=0;fillColor=#60a917;strokeColor=#2D7600;fontColor=#ffffff;" vertex="1" parent="WIyWlLk6GJQsqaUBKTNV-1">
          <mxGeometry x="220" y="1080" width="170" height="110" as="geometry" />
        </mxCell>
        <mxCell id="sTVolGUjrKoJvCUlZHto-105" style="edgeStyle=orthogonalEdgeStyle;rounded=0;orthogonalLoop=1;jettySize=auto;html=1;entryX=0.5;entryY=0;entryDx=0;entryDy=0;fontFamily=Helvetica;fontSize=12;fontColor=default;" edge="1" parent="WIyWlLk6GJQsqaUBKTNV-1" source="sTVolGUjrKoJvCUlZHto-107" target="sTVolGUjrKoJvCUlZHto-104">
          <mxGeometry relative="1" as="geometry">
            <mxPoint x="305" y="1262.5" as="sourcePoint" />
          </mxGeometry>
        </mxCell>
        <mxCell id="sTVolGUjrKoJvCUlZHto-94" value="各QxLibraryList: public QWidget 类统一增删改查的接口，控制m_flowPage或者m_constructionFlowWidget" style="shape=callout;whiteSpace=wrap;html=1;perimeter=calloutPerimeter;rounded=0;strokeColor=default;align=center;verticalAlign=middle;fontFamily=Helvetica;fontSize=14;fontColor=default;fillColor=default;position2=0;" vertex="1" parent="WIyWlLk6GJQsqaUBKTNV-1">
          <mxGeometry x="410" y="1150" width="190" height="105" as="geometry" />
        </mxCell>
        <mxCell id="sTVolGUjrKoJvCUlZHto-95" value="交互类" style="shape=callout;whiteSpace=wrap;html=1;perimeter=calloutPerimeter;rounded=0;strokeColor=default;align=center;verticalAlign=middle;fontFamily=Helvetica;fontSize=14;fontColor=default;fillColor=default;position2=1;" vertex="1" parent="WIyWlLk6GJQsqaUBKTNV-1">
          <mxGeometry x="80" y="990" width="70" height="70" as="geometry" />
        </mxCell>
        <mxCell id="sTVolGUjrKoJvCUlZHto-96" value="&lt;span style=&quot;font-size: 22px;&quot;&gt;外部读取layout/flow/...&lt;/span&gt;" style="text;html=1;strokeColor=none;fillColor=none;align=center;verticalAlign=middle;whiteSpace=wrap;rounded=0;fontSize=22;fontFamily=Helvetica;fontColor=default;" vertex="1" parent="WIyWlLk6GJQsqaUBKTNV-1">
          <mxGeometry x="270" y="970" width="190" height="70" as="geometry" />
        </mxCell>
        <mxCell id="sTVolGUjrKoJvCUlZHto-100" value="m_constructionFlowWidget-&amp;gt;addNewItem" style="rounded=1;whiteSpace=wrap;html=1;fontSize=14;glass=0;strokeWidth=1;shadow=0;fillColor=#60a917;strokeColor=#2D7600;fontColor=#ffffff;" vertex="1" parent="WIyWlLk6GJQsqaUBKTNV-1">
          <mxGeometry x="370" y="1570" width="205" height="40" as="geometry" />
        </mxCell>
        <mxCell id="sTVolGUjrKoJvCUlZHto-101" style="edgeStyle=orthogonalEdgeStyle;rounded=0;orthogonalLoop=1;jettySize=auto;html=1;fontFamily=Helvetica;fontSize=12;fontColor=default;" edge="1" parent="WIyWlLk6GJQsqaUBKTNV-1" source="sTVolGUjrKoJvCUlZHto-102" target="sTVolGUjrKoJvCUlZHto-103">
          <mxGeometry relative="1" as="geometry" />
        </mxCell>
        <mxCell id="sTVolGUjrKoJvCUlZHto-102" value="m_flowPage-&amp;gt;addNewItem" style="rounded=1;whiteSpace=wrap;html=1;fontSize=14;glass=0;strokeWidth=1;shadow=0;fillColor=#60a917;strokeColor=#2D7600;fontColor=#ffffff;" vertex="1" parent="WIyWlLk6GJQsqaUBKTNV-1">
          <mxGeometry x="155" y="1570" width="160" height="40" as="geometry" />
        </mxCell>
        <mxCell id="sTVolGUjrKoJvCUlZHto-103" value="QxFlowPage::addNewItem" style="rounded=1;whiteSpace=wrap;html=1;fontSize=14;glass=0;strokeWidth=1;shadow=0;fillColor=#60a917;strokeColor=#2D7600;fontColor=#ffffff;" vertex="1" parent="WIyWlLk6GJQsqaUBKTNV-1">
          <mxGeometry x="140" y="1700" width="190" height="40" as="geometry" />
        </mxCell>
        <mxCell id="sTVolGUjrKoJvCUlZHto-104" value="addNewItemSlot;&lt;div&gt;updateDragItemInfoSlot;&lt;/div&gt;deleteLibraryItemSlot;&lt;br&gt;addDragItemSlot;" style="rounded=1;whiteSpace=wrap;html=1;fontSize=14;glass=0;strokeWidth=1;shadow=0;fillColor=#60a917;strokeColor=#2D7600;fontColor=#ffffff;" vertex="1" parent="WIyWlLk6GJQsqaUBKTNV-1">
          <mxGeometry x="220" y="1310" width="170" height="90" as="geometry" />
        </mxCell>
        <mxCell id="sTVolGUjrKoJvCUlZHto-107" value="connect" style="rounded=0;whiteSpace=wrap;html=1;strokeColor=default;align=center;verticalAlign=middle;fontFamily=Helvetica;fontSize=12;fontColor=default;fillColor=default;" vertex="1" parent="WIyWlLk6GJQsqaUBKTNV-1">
          <mxGeometry x="245" y="1222.5" width="120" height="40" as="geometry" />
        </mxCell>
      </root>
    </mxGraphModel>
  </diagram>
</mxfile>
